<svg width="70" height="70" viewBox="0 0 70 70" fill="none" xmlns="http://www.w3.org/2000/svg">
<g id="bxl:instagram-alt">
<path id="Vector" d="M61.0954 24.2229C61.066 22.0139 60.6524 19.8268 59.8733 17.7596C59.1976 16.0159 58.1657 14.4322 56.8434 13.1099C55.521 11.7876 53.9374 10.7556 52.1937 10.08C50.153 9.31395 47.9971 8.89974 45.8179 8.855C43.012 8.72958 42.1225 8.69458 35 8.69458C27.8775 8.69458 26.9645 8.69458 24.1791 8.855C22.0008 8.90007 19.846 9.31428 17.8062 10.08C16.0622 10.7552 14.4784 11.787 13.156 13.1093C11.8336 14.4317 10.8018 16.0156 10.1266 17.7596C9.35905 19.7987 8.94574 21.9541 8.90454 24.1325C8.77913 26.9412 8.74121 27.8308 8.74121 34.9533C8.74121 42.0758 8.74121 42.9858 8.90454 45.7742C8.94829 47.9558 9.35954 50.1083 10.1266 52.1529C10.8029 53.8964 11.8355 55.4796 13.1583 56.8014C14.4811 58.1232 16.0651 59.1546 17.8091 59.8296C19.8433 60.6264 21.9985 61.0703 24.182 61.1421C26.9908 61.2675 27.8804 61.3054 35.0029 61.3054C42.1254 61.3054 43.0383 61.3054 45.8237 61.1421C48.0029 61.0992 50.1589 60.6859 52.1995 59.92C53.9428 59.2436 55.526 58.2113 56.8482 56.8891C58.1705 55.5669 59.2027 53.9837 59.8791 52.2404C60.6462 50.1987 61.0575 48.0462 61.1012 45.8617C61.2266 43.0558 61.2645 42.1662 61.2645 35.0408C61.2587 27.9183 61.2587 27.0142 61.0954 24.2229ZM34.9825 48.4225C27.5333 48.4225 21.4987 42.3879 21.4987 34.9387C21.4987 27.4896 27.5333 21.455 34.9825 21.455C38.5586 21.455 41.9882 22.8756 44.5169 25.4043C47.0456 27.933 48.4662 31.3626 48.4662 34.9387C48.4662 38.5149 47.0456 41.9445 44.5169 44.4732C41.9882 47.0019 38.5586 48.4225 34.9825 48.4225ZM49.0029 24.1004C48.5899 24.1008 48.1808 24.0197 47.7992 23.8619C47.4176 23.704 47.0708 23.4724 46.7788 23.1804C46.4867 22.8883 46.2551 22.5416 46.0973 22.1599C45.9394 21.7783 45.8583 21.3693 45.8587 20.9562C45.8587 20.5435 45.94 20.1349 46.0979 19.7536C46.2559 19.3723 46.4874 19.0258 46.7792 18.734C47.071 18.4422 47.4175 18.2107 47.7988 18.0528C48.18 17.8948 48.5887 17.8135 49.0014 17.8135C49.4141 17.8135 49.8228 17.8948 50.2041 18.0528C50.5854 18.2107 50.9318 18.4422 51.2237 18.734C51.5155 19.0258 51.747 19.3723 51.9049 19.7536C52.0628 20.1349 52.1441 20.5435 52.1441 20.9562C52.1441 22.6946 50.7383 24.1004 49.0029 24.1004Z" fill="white"/>
<path id="Vector_2" d="M34.9824 43.6976C39.8197 43.6976 43.7411 39.7761 43.7411 34.9388C43.7411 30.1015 39.8197 26.1801 34.9824 26.1801C30.1451 26.1801 26.2236 30.1015 26.2236 34.9388C26.2236 39.7761 30.1451 43.6976 34.9824 43.6976Z" fill="white"/>
</g>
</svg>
