<svg width="18" height="18" viewBox="0 0 18 18" fill="none" xmlns="http://www.w3.org/2000/svg">
<g id="mdi:events" clip-path="url(#clip0_555_156)">
<path id="Vector" d="M15.75 12.75V6H5.25V12.75H15.75ZM15.75 2.25C16.1478 2.25 16.5294 2.40804 16.8107 2.68934C17.092 2.97064 17.25 3.35218 17.25 3.75V12.75C17.25 13.1478 17.092 13.5294 16.8107 13.8107C16.5294 14.092 16.1478 14.25 15.75 14.25H5.25C4.85218 14.25 4.47064 14.092 4.18934 13.8107C3.90804 13.5294 3.75 13.1478 3.75 12.75V3.75C3.75 3.35218 3.90804 2.97064 4.18934 2.68934C4.47064 2.40804 4.85218 2.25 5.25 2.25H6V0.75H7.5V2.25H13.5V0.75H15V2.25H15.75ZM2.25 15.75H12.75V17.25H2.25C1.85218 17.25 1.47064 17.092 1.18934 16.8107C0.908035 16.5294 0.75 16.1478 0.75 15.75V6.75H2.25V15.75ZM14.25 11.25H11.25V8.25H14.25V11.25Z" fill="white" fill-opacity="0.9"/>
</g>
<defs>
<clipPath id="clip0_555_156">
<rect width="18" height="18" fill="white"/>
</clipPath>
</defs>
</svg>
