<svg width="24" height="26" viewBox="0 0 24 26" fill="none" xmlns="http://www.w3.org/2000/svg">
<g id="formkit:people">
<path id="Vector" d="M12 11.2C10.9391 11.2 9.92172 10.7786 9.17157 10.0284C8.42143 9.27829 8 8.26088 8 7.20001C8 6.13915 8.42143 5.12173 9.17157 4.37159C9.92172 3.62144 10.9391 3.20001 12 3.20001C13.0609 3.20001 14.0783 3.62144 14.8284 4.37159C15.5786 5.12173 16 6.13915 16 7.20001C16 8.26088 15.5786 9.27829 14.8284 10.0284C14.0783 10.7786 13.0609 11.2 12 11.2ZM12 4.80001C10.672 4.80001 9.6 5.87201 9.6 7.20001C9.6 8.52801 10.672 9.60001 12 9.60001C13.328 9.60001 14.4 8.52801 14.4 7.20001C14.4 5.87201 13.328 4.80001 12 4.80001Z" fill="#00F0FF" fill-opacity="0.9"/>
<path id="Vector_2" d="M21.6 17.6C21.152 17.6 20.8 17.248 20.8 16.8C20.8 16.352 21.152 16 21.6 16C22.048 16 22.4 15.648 22.4 15.2C22.4 14.1391 21.9786 13.1217 21.2284 12.3716C20.4783 11.6214 19.4609 11.2 18.4 11.2H16.8C16.352 11.2 16 10.848 16 10.4C16 9.95201 16.352 9.60001 16.8 9.60001C18.128 9.60001 19.2 8.52801 19.2 7.20001C19.2 5.87201 18.128 4.80001 16.8 4.80001C16.352 4.80001 16 4.44801 16 4.00001C16 3.55201 16.352 3.20001 16.8 3.20001C17.8609 3.20001 18.8783 3.62144 19.6284 4.37159C20.3786 5.12173 20.8 6.13915 20.8 7.20001C20.8 8.19201 20.448 9.08801 19.84 9.79201C22.224 10.432 24 12.608 24 15.2C24 16.528 22.928 17.6 21.6 17.6ZM2.4 17.6C1.072 17.6 0 16.528 0 15.2C0 12.608 1.76 10.432 4.16 9.79201C3.568 9.08801 3.2 8.19201 3.2 7.20001C3.2 6.13915 3.62143 5.12173 4.37157 4.37159C5.12172 3.62144 6.13913 3.20001 7.2 3.20001C7.648 3.20001 8 3.55201 8 4.00001C8 4.44801 7.648 4.80001 7.2 4.80001C5.872 4.80001 4.8 5.87201 4.8 7.20001C4.8 8.52801 5.872 9.60001 7.2 9.60001C7.648 9.60001 8 9.95201 8 10.4C8 10.848 7.648 11.2 7.2 11.2H5.6C4.53913 11.2 3.52172 11.6214 2.77157 12.3716C2.02143 13.1217 1.6 14.1391 1.6 15.2C1.6 15.648 1.952 16 2.4 16C2.848 16 3.2 16.352 3.2 16.8C3.2 17.248 2.848 17.6 2.4 17.6ZM16.8 22.4H7.2C5.872 22.4 4.8 21.328 4.8 20V18.4C4.8 15.312 7.312 12.8 10.4 12.8H13.6C16.688 12.8 19.2 15.312 19.2 18.4V20C19.2 21.328 18.128 22.4 16.8 22.4ZM10.4 14.4C9.33913 14.4 8.32172 14.8214 7.57157 15.5716C6.82143 16.3217 6.4 17.3391 6.4 18.4V20C6.4 20.448 6.752 20.8 7.2 20.8H16.8C17.248 20.8 17.6 20.448 17.6 20V18.4C17.6 17.3391 17.1786 16.3217 16.4284 15.5716C15.6783 14.8214 14.6609 14.4 13.6 14.4H10.4Z" fill="#00F0FF" fill-opacity="0.9"/>
</g>
</svg>
