<svg width="24" height="24" viewBox="0 0 24 24" fill="none" xmlns="http://www.w3.org/2000/svg">
<g id="pajamas:location" clip-path="url(#clip0_516_139)">
<path id="Vector" fill-rule="evenodd" clip-rule="evenodd" d="M18.75 8.99999C18.7531 10.4463 18.2885 11.8549 17.4255 13.0155L12 20.25L6.5745 13.0155C5.93926 12.1572 5.51668 11.1605 5.34148 10.1073C5.16629 9.05398 5.24346 7.97415 5.56667 6.95648C5.88988 5.93882 6.44991 5.01235 7.20075 4.25317C7.95159 3.49399 8.87182 2.92377 9.88585 2.58934C10.8999 2.25491 11.9788 2.16582 13.0339 2.32937C14.0891 2.49293 15.0904 2.90447 15.9556 3.5302C16.8208 4.15592 17.5252 4.97797 18.011 5.92883C18.4968 6.87969 18.75 7.93223 18.75 8.99999ZM21 8.99999C21 11.01 20.3415 12.864 19.23 14.361L13.4055 22.125L12 24L10.593 22.125L4.77 14.361C3.92203 13.2171 3.35756 11.8884 3.12298 10.484C2.8884 9.07951 2.99039 7.63946 3.42058 6.2821C3.85078 4.92475 4.59689 3.68884 5.59762 2.67591C6.59835 1.66299 7.82514 0.901963 9.17718 0.455364C10.5292 0.00876401 11.9679 -0.110663 13.3751 0.106895C14.7823 0.324453 16.1178 0.872787 17.2718 1.70684C18.4259 2.5409 19.3655 3.63688 20.0137 4.90472C20.6618 6.17256 20.9998 7.57609 21 8.99999ZM12 12C12.7957 12 13.5587 11.6839 14.1213 11.1213C14.6839 10.5587 15 9.79564 15 8.99999C15 8.20434 14.6839 7.44128 14.1213 6.87867C13.5587 6.31606 12.7957 5.99999 12 5.99999C11.2044 5.99999 10.4413 6.31606 9.87868 6.87867C9.31607 7.44128 9 8.20434 9 8.99999C9 9.79564 9.31607 10.5587 9.87868 11.1213C10.4413 11.6839 11.2044 12 12 12Z" fill="#21E900"/>
</g>
<defs>
<clipPath id="clip0_516_139">
<rect width="24" height="24" fill="white"/>
</clipPath>
</defs>
</svg>
