<svg width="70" height="70" viewBox="0 0 70 70" fill="none" xmlns="http://www.w3.org/2000/svg">
<g id="ri:linkedin-box-fill">
<path id="Vector" d="M53.48 53.4888H45.7071V41.3058C45.7071 38.4008 45.6488 34.6617 41.6529 34.6617C37.6017 34.6617 36.9833 37.8233 36.9833 41.0929V53.4888H29.2075V28.4375H36.6742V31.85H36.7763C37.8204 29.8842 40.3579 27.8046 44.1496 27.8046C52.0246 27.8046 53.4829 32.9904 53.4829 39.7367L53.48 53.4888ZM20.4283 25.0104C19.835 25.0112 19.2473 24.8948 18.6989 24.668C18.1506 24.4412 17.6524 24.1084 17.233 23.6887C16.8136 23.269 16.4811 22.7706 16.2546 22.2221C16.0282 21.6737 15.9122 21.0859 15.9133 20.4925C15.9139 19.5995 16.1793 18.7268 16.6759 17.9846C17.1725 17.2424 17.878 16.6642 18.7032 16.323C19.5284 15.9818 20.4363 15.893 21.312 16.0677C22.1877 16.2425 22.992 16.6731 23.623 17.3049C24.254 17.9367 24.6835 18.7415 24.8571 19.6174C25.0308 20.4934 24.9408 21.4011 24.5985 22.2259C24.2563 23.0507 23.6771 23.7555 22.9343 24.2511C22.1915 24.7468 21.3184 25.011 20.4254 25.0104H20.4283ZM24.325 53.4888H16.5287V28.4375H24.325V53.4888ZM57.3708 8.75H12.6292C10.4825 8.75 8.75 10.4417 8.75 12.5329V57.4671C8.75 59.5583 10.4825 61.25 12.6233 61.25H57.3621C59.5 61.25 61.25 59.5583 61.25 57.4671V12.5329C61.25 10.4446 59.5 8.75 57.3592 8.75H57.3708Z" fill="white"/>
</g>
</svg>
