<svg width="15" height="16" viewBox="0 0 15 16" fill="none" xmlns="http://www.w3.org/2000/svg">
<path id="Vector" d="M3.38291 4.23077H11.0293M3.38291 4.23077C2.98639 4.23077 2.78764 4.23077 2.63619 4.34815C2.50297 4.4514 2.39473 4.61602 2.32686 4.81866C2.24969 5.04903 2.24969 5.35082 2.24969 5.95395V11.554C2.24969 12.7602 2.24969 13.3635 2.40402 13.8242C2.53978 14.2295 2.75624 14.559 3.02268 14.7655C3.32529 15 3.72162 15 4.5131 15H9.89804C10.6895 15 11.0853 15 11.3879 14.7655C11.6543 14.559 11.8718 14.2294 12.0075 13.8241C12.1617 13.3639 12.1617 12.7618 12.1617 11.5578V5.94418C12.1617 5.34755 12.1617 5.04778 12.085 4.81866C12.0171 4.61602 11.9083 4.4514 11.7751 4.34815C11.6237 4.23077 11.4258 4.23077 11.0293 4.23077M3.38291 4.23077H2.23221C1.63105 4.23077 1.33064 4.23077 1.16003 4.07091C0.932348 3.85759 0.803256 3.46701 0.826082 3.06174C0.843201 2.75779 1.02213 2.39019 1.38059 1.65412C1.48427 1.44122 1.53612 1.33475 1.59958 1.25346C1.68419 1.14506 1.7846 1.06808 1.89223 1.02918C1.97295 1 2.05959 1 2.23379 1H12.1772C12.3514 1 12.4383 1 12.519 1.02918C12.6266 1.06808 12.727 1.14506 12.8116 1.25346C12.8751 1.33475 12.9271 1.44072 13.0308 1.65362C13.3893 2.38968 13.5685 2.75773 13.5856 3.06168C13.6084 3.46695 13.4789 3.85759 13.2512 4.07091C13.0806 4.23077 12.7795 4.23077 12.1783 4.23077H11.0293M5.78969 9.61539H8.6217" stroke="white" stroke-linecap="round" stroke-linejoin="round"/>
</svg>
