<svg width="16" height="16" viewBox="0 0 16 16" fill="none" xmlns="http://www.w3.org/2000/svg">
<path id="Vector" d="M10.3334 6.44442L7.22229 9.55561L5.6667 8.00001M8.96928 1.35685L9.91893 2.16614C10.1582 2.37003 10.4552 2.4933 10.7686 2.5183L12.0123 2.61742C12.7435 2.67578 13.3244 3.25623 13.3827 3.98746L13.4816 5.23139C13.5066 5.54474 13.6303 5.84224 13.8342 6.08149L14.6431 7.03089C15.1189 7.58921 15.119 8.41048 14.6432 8.9688L13.8343 9.91834C13.6304 10.1576 13.5068 10.4552 13.4818 10.7686L13.3823 12.0123C13.324 12.7435 12.7441 13.3243 12.0128 13.3827L10.7687 13.482C10.4553 13.507 10.158 13.6299 9.91873 13.8338L8.96928 14.6431C8.41096 15.1189 7.58919 15.119 7.03088 14.6432L6.08142 13.8339C5.84217 13.63 5.54482 13.5068 5.23148 13.4818L3.98732 13.3827C3.25609 13.3243 2.67618 12.7437 2.61783 12.0124L2.51832 10.7686C2.49332 10.4553 2.36978 10.1579 2.16589 9.91868L1.35696 8.96884C0.881163 8.41052 0.88094 7.58951 1.35673 7.03119L2.16639 6.08135C2.37028 5.8421 2.49264 5.54474 2.51764 5.23139L2.61714 3.98761C2.6755 3.25637 3.25708 2.6757 3.98831 2.61735L5.23109 2.51822C5.54444 2.49322 5.84194 2.37006 6.08119 2.16617L7.03096 1.35685C7.58927 0.881051 8.41096 0.881051 8.96928 1.35685Z" stroke="white" stroke-width="1.5" stroke-linecap="round" stroke-linejoin="round"/>
</svg>
