<svg width="16" height="16" viewBox="0 0 16 16" fill="none" xmlns="http://www.w3.org/2000/svg">
<path id="Vector" d="M12.0574 13.7029C11.0605 12.5895 9.61207 11.8889 8 11.8889C6.38793 11.8889 4.93938 12.5895 3.94249 13.7029M8 15C4.13401 15 1 11.866 1 8C1 4.13401 4.13401 1 8 1C11.866 1 15 4.13401 15 8C15 11.866 11.866 15 8 15ZM8 9.55556C6.71134 9.55556 5.66667 8.51089 5.66667 7.22222C5.66667 5.93356 6.71134 4.88889 8 4.88889C9.28866 4.88889 10.3333 5.93356 10.3333 7.22222C10.3333 8.51089 9.28866 9.55556 8 9.55556Z" stroke="white" stroke-width="1.5" stroke-linecap="round" stroke-linejoin="round"/>
</svg>
