<svg width="15" height="16" viewBox="0 0 15 16" fill="none" xmlns="http://www.w3.org/2000/svg">
<path id="Vector" opacity="0.9" d="M0.823486 5.66667H13.5882M0.823486 5.66667V12.5113C0.823486 13.3825 0.823486 13.8178 0.997395 14.1506C1.15037 14.4433 1.39429 14.6815 1.69452 14.8306C2.0355 15 2.4821 15 3.37396 15H11.0377C11.9296 15 12.3755 15 12.7165 14.8306C13.0167 14.6815 13.2615 14.4433 13.4145 14.1506C13.5882 13.8182 13.5882 13.3834 13.5882 12.5139V5.66667M0.823486 5.66667V5.0446C0.823486 4.1734 0.823486 3.73748 0.997395 3.40473C1.15037 3.11203 1.39429 2.87424 1.69452 2.7251C2.03583 2.55556 2.48297 2.55556 3.37658 2.55556H4.01466M13.5882 5.66667V5.04204C13.5882 4.17255 13.5882 3.73716 13.4145 3.40473C13.2615 3.11203 13.0167 2.87424 12.7165 2.7251C12.3752 2.55556 11.929 2.55556 11.0354 2.55556H10.397M4.01466 2.55556H10.397M4.01466 2.55556V1M10.397 2.55556V1M7.00639 11.8889C7.11654 11.8889 7.20584 11.8018 7.20584 11.6944V8.97222C7.20584 8.86483 7.11654 8.77778 7.00639 8.77778H4.21411C4.10396 8.77778 4.01466 8.86483 4.01466 8.97222V11.6944C4.01466 11.8018 4.10396 11.8889 4.21411 11.8889H7.00639Z" stroke="white" stroke-width="1.5" stroke-linecap="round" stroke-linejoin="round"/>
</svg>
